{
    "asset" : {
        "generator" : "Khronos glTF Blender I/O v1.8.19",
        "version" : "2.0"
    },
    "scene" : 0,
    "scenes" : [
        {
            "name" : "Scene",
            "nodes" : [
                0,
                1,
                2,
                3,
                4,
                5,
                6,
                10
            ]
        }
    ],
    "nodes" : [
        {
            "mesh" : 0,
            "name" : "Cube.891",
            "rotation" : [
                0,
                -0.9195233583450317,
                0,
                -0.39303532242774963
            ],
            "scale" : [
                2.2231178283691406,
                1.9688525199890137,
                2.240515947341919
            ],
            "translation" : [
                -20.465530395507812,
                15.337030410766602,
                36.61471176147461
            ]
        },
        {
            "mesh" : 1,
            "name" : "Cube.900",
            "scale" : [
                1.7444978952407837,
                2.202430248260498,
                2.378556966781616
            ],
            "translation" : [
                8.470208168029785,
                21.117822647094727,
                54.85671615600586
            ]
        },
        {
            "mesh" : 2,
            "name" : "Cube.892",
            "rotation" : [
                0.018849294632673264,
                -0.39032116532325745,
                -0.04585956409573555,
                0.9193426966667175
            ],
            "scale" : [
                2.22255802154541,
                1.971510410308838,
                2.2386257648468018
            ],
            "translation" : [
                -40.86591339111328,
                19.179561614990234,
                56.40838623046875
            ]
        },
        {
            "mesh" : 3,
            "name" : "Cube.894",
            "rotation" : [
                0,
                -0.614925742149353,
                0,
                0.7885850667953491
            ],
            "scale" : [
                2.049014091491699,
                1.9688525199890137,
                2.3921315670013428
            ],
            "translation" : [
                -30.39746856689453,
                17.766427993774414,
                18.260982513427734
            ]
        },
        {
            "mesh" : 4,
            "name" : "Cube.877",
            "rotation" : [
                0,
                -0.9860573410987854,
                0,
                0.16640587151050568
            ],
            "scale" : [
                1.7444978952407837,
                2.202430248260498,
                2.378556966781616
            ],
            "translation" : [
                -4.669900894165039,
                20.071590423583984,
                47.31149673461914
            ]
        },
        {
            "mesh" : 5,
            "name" : "Model",
            "scale" : [
                0.60512375831604,
                0.60512375831604,
                0.60512375831604
            ],
            "translation" : [
                -38.30659103393555,
                9.35783576965332,
                64.21637725830078
            ]
        },
        {
            "mesh" : 6,
            "name" : "gras plane",
            "rotation" : [
                -0.0027785429265350103,
                0.019804367795586586,
                -0.00011528428876772523,
                0.9998000264167786
            ],
            "scale" : [
                68.28437042236328,
                42.38814163208008,
                130.35980224609375
            ],
            "translation" : [
                -5.057206153869629,
                -2.35741925239563,
                -6.105180740356445
            ]
        },
        {
            "mesh" : 7,
            "name" : "defaultMaterial",
            "translation" : [
                -0.11139719188213348,
                0.0005505852168425918,
                -0.8764456510543823
            ]
        },
        {
            "children" : [
                7
            ],
            "name" : "g"
        },
        {
            "children" : [
                8
            ],
            "name" : "Collada visual scene group",
            "rotation" : [
                0.7071068286895752,
                0,
                0,
                0.7071068286895752
            ]
        },
        {
            "children" : [
                9
            ],
            "name" : "Sketchfab_model",
            "rotation" : [
                0,
                -0.9380126595497131,
                0,
                -0.34660112857818604
            ],
            "scale" : [
                3.0984597206115723,
                3.0984601974487305,
                3.0984597206115723
            ],
            "translation" : [
                -6.2175612449646,
                16.974252700805664,
                63.75102996826172
            ]
        }
    ],
    "meshes" : [
        {
            "name" : "Cube.1421",
            "primitives" : [
                {
                    "attributes" : {
                        "POSITION" : 0,
                        "NORMAL" : 1,
                        "TEXCOORD_0" : 2
                    },
                    "indices" : 3
                }
            ]
        },
        {
            "name" : "Cube.1404",
            "primitives" : [
                {
                    "attributes" : {
                        "POSITION" : 4,
                        "NORMAL" : 5,
                        "TEXCOORD_0" : 6
                    },
                    "indices" : 7
                }
            ]
        },
        {
            "name" : "Cube.1422",
            "primitives" : [
                {
                    "attributes" : {
                        "POSITION" : 8,
                        "NORMAL" : 9,
                        "TEXCOORD_0" : 10
                    },
                    "indices" : 11
                }
            ]
        },
        {
            "name" : "Cube.1418",
            "primitives" : [
                {
                    "attributes" : {
                        "POSITION" : 12,
                        "NORMAL" : 13,
                        "TEXCOORD_0" : 14
                    },
                    "indices" : 7
                }
            ]
        },
        {
            "name" : "Cube.1413",
            "primitives" : [
                {
                    "attributes" : {
                        "POSITION" : 15,
                        "NORMAL" : 16,
                        "TEXCOORD_0" : 17
                    },
                    "indices" : 7
                }
            ]
        },
        {
            "name" : "Cube.003",
            "primitives" : [
                {
                    "attributes" : {
                        "POSITION" : 18,
                        "NORMAL" : 19,
                        "TEXCOORD_0" : 20
                    },
                    "indices" : 21
                }
            ]
        },
        {
            "name" : "Plane.001",
            "primitives" : [
                {
                    "attributes" : {
                        "POSITION" : 22,
                        "NORMAL" : 23,
                        "TEXCOORD_0" : 24
                    },
                    "indices" : 25
                }
            ]
        },
        {
            "name" : "defaultMaterial.001",
            "primitives" : [
                {
                    "attributes" : {
                        "POSITION" : 26,
                        "NORMAL" : 27,
                        "TEXCOORD_0" : 28
                    },
                    "indices" : 29
                }
            ]
        }
    ],
    "accessors" : [
        {
            "bufferView" : 0,
            "componentType" : 5126,
            "count" : 338,
            "max" : [
                10.762357711791992,
                7.468968391418457,
                4.446061611175537
            ],
            "min" : [
                -6.078939437866211,
                -9.85559368133545,
                -4.3996901512146
            ],
            "type" : "VEC3"
        },
        {
            "bufferView" : 1,
            "componentType" : 5126,
            "count" : 338,
            "type" : "VEC3"
        },
        {
            "bufferView" : 2,
            "componentType" : 5126,
            "count" : 338,
            "type" : "VEC2"
        },
        {
            "bufferView" : 3,
            "componentType" : 5123,
            "count" : 720,
            "type" : "SCALAR"
        },
        {
            "bufferView" : 4,
            "componentType" : 5126,
            "count" : 507,
            "max" : [
                5.758256912231445,
                10.200326919555664,
                3.3496155738830566
            ],
            "min" : [
                -7.357966423034668,
                -11.094202041625977,
                -3.241640567779541
            ],
            "type" : "VEC3"
        },
        {
            "bufferView" : 5,
            "componentType" : 5126,
            "count" : 507,
            "type" : "VEC3"
        },
        {
            "bufferView" : 6,
            "componentType" : 5126,
            "count" : 507,
            "type" : "VEC2"
        },
        {
            "bufferView" : 7,
            "componentType" : 5123,
            "count" : 1056,
            "type" : "SCALAR"
        },
        {
            "bufferView" : 8,
            "componentType" : 5126,
            "count" : 240,
            "max" : [
                3.1275813579559326,
                7.07623291015625,
                3.214855194091797
            ],
            "min" : [
                -1.0526870489120483,
                -11.579538345336914,
                -2.904665946960449
            ],
            "type" : "VEC3"
        },
        {
            "bufferView" : 9,
            "componentType" : 5126,
            "count" : 240,
            "type" : "VEC3"
        },
        {
            "bufferView" : 10,
            "componentType" : 5126,
            "count" : 240,
            "type" : "VEC2"
        },
        {
            "bufferView" : 11,
            "componentType" : 5123,
            "count" : 600,
            "type" : "SCALAR"
        },
        {
            "bufferView" : 12,
            "componentType" : 5126,
            "count" : 507,
            "max" : [
                5.758256912231445,
                10.200326919555664,
                3.3496155738830566
            ],
            "min" : [
                -7.357966423034668,
                -11.094202041625977,
                -3.241640567779541
            ],
            "type" : "VEC3"
        },
        {
            "bufferView" : 13,
            "componentType" : 5126,
            "count" : 507,
            "type" : "VEC3"
        },
        {
            "bufferView" : 14,
            "componentType" : 5126,
            "count" : 507,
            "type" : "VEC2"
        },
        {
            "bufferView" : 15,
            "componentType" : 5126,
            "count" : 507,
            "max" : [
                5.758256912231445,
                10.200326919555664,
                3.3496155738830566
            ],
            "min" : [
                -7.357966423034668,
                -11.094202041625977,
                -3.241640567779541
            ],
            "type" : "VEC3"
        },
        {
            "bufferView" : 16,
            "componentType" : 5126,
            "count" : 507,
            "type" : "VEC3"
        },
        {
            "bufferView" : 17,
            "componentType" : 5126,
            "count" : 507,
            "type" : "VEC2"
        },
        {
            "bufferView" : 18,
            "componentType" : 5126,
            "count" : 4233,
            "max" : [
                11.43850326538086,
                5.253500938415527,
                4.110073089599609
            ],
            "min" : [
                -11.564809799194336,
                -16.70656967163086,
                -5.515007972717285
            ],
            "type" : "VEC3"
        },
        {
            "bufferView" : 19,
            "componentType" : 5126,
            "count" : 4233,
            "type" : "VEC3"
        },
        {
            "bufferView" : 20,
            "componentType" : 5126,
            "count" : 4233,
            "type" : "VEC2"
        },
        {
            "bufferView" : 21,
            "componentType" : 5123,
            "count" : 8034,
            "type" : "SCALAR"
        },
        {
            "bufferView" : 22,
            "componentType" : 5126,
            "count" : 4,
            "max" : [
                1.0226311683654785,
                0.005118461791425943,
                0.7008547186851501
            ],
            "min" : [
                -1.0226311683654785,
                -0.005118461791425943,
                -0.7008547186851501
            ],
            "type" : "VEC3"
        },
        {
            "bufferView" : 23,
            "componentType" : 5126,
            "count" : 4,
            "type" : "VEC3"
        },
        {
            "bufferView" : 24,
            "componentType" : 5126,
            "count" : 4,
            "type" : "VEC2"
        },
        {
            "bufferView" : 25,
            "componentType" : 5123,
            "count" : 6,
            "type" : "SCALAR"
        },
        {
            "bufferView" : 26,
            "componentType" : 5126,
            "count" : 2449,
            "max" : [
                1.050739049911499,
                0.07310875505208969,
                0.9257742166519165
            ],
            "min" : [
                -0.8279157876968384,
                -0.07423911243677139,
                -1.0742257833480835
            ],
            "type" : "VEC3"
        },
        {
            "bufferView" : 27,
            "componentType" : 5126,
            "count" : 2449,
            "type" : "VEC3"
        },
        {
            "bufferView" : 28,
            "componentType" : 5126,
            "count" : 2449,
            "type" : "VEC2"
        },
        {
            "bufferView" : 29,
            "componentType" : 5123,
            "count" : 7188,
            "type" : "SCALAR"
        }
    ],
    "bufferViews" : [
        {
            "buffer" : 0,
            "byteLength" : 4056,
            "byteOffset" : 0
        },
        {
            "buffer" : 0,
            "byteLength" : 4056,
            "byteOffset" : 4056
        },
        {
            "buffer" : 0,
            "byteLength" : 2704,
            "byteOffset" : 8112
        },
        {
            "buffer" : 0,
            "byteLength" : 1440,
            "byteOffset" : 10816
        },
        {
            "buffer" : 0,
            "byteLength" : 6084,
            "byteOffset" : 12256
        },
        {
            "buffer" : 0,
            "byteLength" : 6084,
            "byteOffset" : 18340
        },
        {
            "buffer" : 0,
            "byteLength" : 4056,
            "byteOffset" : 24424
        },
        {
            "buffer" : 0,
            "byteLength" : 2112,
            "byteOffset" : 28480
        },
        {
            "buffer" : 0,
            "byteLength" : 2880,
            "byteOffset" : 30592
        },
        {
            "buffer" : 0,
            "byteLength" : 2880,
            "byteOffset" : 33472
        },
        {
            "buffer" : 0,
            "byteLength" : 1920,
            "byteOffset" : 36352
        },
        {
            "buffer" : 0,
            "byteLength" : 1200,
            "byteOffset" : 38272
        },
        {
            "buffer" : 0,
            "byteLength" : 6084,
            "byteOffset" : 39472
        },
        {
            "buffer" : 0,
            "byteLength" : 6084,
            "byteOffset" : 45556
        },
        {
            "buffer" : 0,
            "byteLength" : 4056,
            "byteOffset" : 51640
        },
        {
            "buffer" : 0,
            "byteLength" : 6084,
            "byteOffset" : 55696
        },
        {
            "buffer" : 0,
            "byteLength" : 6084,
            "byteOffset" : 61780
        },
        {
            "buffer" : 0,
            "byteLength" : 4056,
            "byteOffset" : 67864
        },
        {
            "buffer" : 0,
            "byteLength" : 50796,
            "byteOffset" : 71920
        },
        {
            "buffer" : 0,
            "byteLength" : 50796,
            "byteOffset" : 122716
        },
        {
            "buffer" : 0,
            "byteLength" : 33864,
            "byteOffset" : 173512
        },
        {
            "buffer" : 0,
            "byteLength" : 16068,
            "byteOffset" : 207376
        },
        {
            "buffer" : 0,
            "byteLength" : 48,
            "byteOffset" : 223444
        },
        {
            "buffer" : 0,
            "byteLength" : 48,
            "byteOffset" : 223492
        },
        {
            "buffer" : 0,
            "byteLength" : 32,
            "byteOffset" : 223540
        },
        {
            "buffer" : 0,
            "byteLength" : 12,
            "byteOffset" : 223572
        },
        {
            "buffer" : 0,
            "byteLength" : 29388,
            "byteOffset" : 223584
        },
        {
            "buffer" : 0,
            "byteLength" : 29388,
            "byteOffset" : 252972
        },
        {
            "buffer" : 0,
            "byteLength" : 19592,
            "byteOffset" : 282360
        },
        {
            "buffer" : 0,
            "byteLength" : 14376,
            "byteOffset" : 301952
        }
    ],
    "buffers" : [
        {
            "byteLength" : 316328,
            "uri" : "data:application/octet-stream;base64,"
        }
    ]
}
