{
    "asset" : {
        "generator" : "Khronos glTF Blender I/O v1.8.19",
        "version" : "2.0"
    },
    "scene" : 0,
    "scenes" : [
        {
            "name" : "Scene",
            "nodes" : [
                0,
                1,
                2,
                3,
                4,
                5,
                6,
                10,
                11
            ]
        }
    ],
    "nodes" : [
        {
            "mesh" : 0,
            "name" : "Cube.891",
            "rotation" : [
                0,
                -0.9364535808563232,
                0,
                -0.3507917523384094
            ],
            "translation" : [
                6.712328910827637,
                6.79579496383667,
                56.74822235107422
            ]
        },
        {
            "mesh" : 1,
            "name" : "Cube.900",
            "rotation" : [
                0,
                0.04549812525510788,
                0,
                0.9989644289016724
            ],
            "translation" : [
                22.597637176513672,
                11.006531715393066,
                66.5295639038086
            ]
        },
        {
            "mesh" : 2,
            "name" : "Cube.892",
            "rotation" : [
                0.0167432501912117,
                -0.3480885922908783,
                -0.04666968062520027,
                0.936149537563324
            ],
            "translation" : [
                -8.868273735046387,
                13.751691818237305,
                77.2225570678711
            ]
        },
        {
            "mesh" : 3,
            "name" : "Cube.894",
            "rotation" : [
                0,
                -0.08808454871177673,
                0,
                0.9961130619049072
            ],
            "translation" : [
                0.448697566986084,
                8.412524223327637,
                48.54203796386719
            ]
        },
        {
            "mesh" : 4,
            "name" : "Cube.877",
            "rotation" : [
                0,
                -0.977465033531189,
                0,
                0.21109730005264282
            ],
            "translation" : [
                8.826056480407715,
                10.88498592376709,
                67.5301742553711
            ]
        },
        {
            "mesh" : 5,
            "name" : "Model",
            "translation" : [
                -9.788053512573242,
                7.880915641784668,
                57.859100341796875
            ]
        },
        {
            "mesh" : 6,
            "name" : "gras plane",
            "translation" : [
                2.8847267627716064,
                -2.357405424118042,
                44.01821517944336
            ]
        },
        {
            "mesh" : 7,
            "name" : "defaultMaterial",
            "translation" : [
                -2.0649023056030273,
                14.475940704345703,
                -1.064062476158142
            ]
        },
        {
            "children" : [
                7
            ],
            "name" : "g"
        },
        {
            "children" : [
                8
            ],
            "name" : "Collada visual scene group",
            "rotation" : [
                0.7071068286895752,
                0,
                0,
                0.7071068286895752
            ]
        },
        {
            "children" : [
                9
            ],
            "name" : "Sketchfab_model",
            "rotation" : [
                0,
                -0.9528110027313232,
                0,
                -0.3035643696784973
            ],
            "scale" : [
                3.0984597206115723,
                3.0984601974487305,
                3.0984597206115723
            ],
            "translation" : [
                -4.117637634277344,
                16.974252700805664,
                63.91019821166992
            ]
        },
        {
            "mesh" : 8,
            "name" : "Cube.001",
            "rotation" : [
                0,
                -0.9504419565200806,
                0,
                0.3109022378921509
            ],
            "translation" : [
                -10.72336196899414,
                8.412524223327637,
                52.47669982910156
            ]
        }
    ],
    "meshes" : [
        {
            "name" : "Cube.1421",
            "primitives" : [
                {
                    "attributes" : {
                        "POSITION" : 0,
                        "NORMAL" : 1,
                        "TEXCOORD_0" : 2
                    },
                    "indices" : 3
                }
            ]
        },
        {
            "name" : "Cube.1404",
            "primitives" : [
                {
                    "attributes" : {
                        "POSITION" : 4,
                        "NORMAL" : 5,
                        "TEXCOORD_0" : 6
                    },
                    "indices" : 7
                }
            ]
        },
        {
            "name" : "Cube.1422",
            "primitives" : [
                {
                    "attributes" : {
                        "POSITION" : 8,
                        "NORMAL" : 9,
                        "TEXCOORD_0" : 10
                    },
                    "indices" : 11
                }
            ]
        },
        {
            "name" : "Cube.1418",
            "primitives" : [
                {
                    "attributes" : {
                        "POSITION" : 12,
                        "NORMAL" : 13,
                        "TEXCOORD_0" : 14
                    },
                    "indices" : 7
                }
            ]
        },
        {
            "name" : "Cube.1413",
            "primitives" : [
                {
                    "attributes" : {
                        "POSITION" : 15,
                        "NORMAL" : 16,
                        "TEXCOORD_0" : 17
                    },
                    "indices" : 7
                }
            ]
        },
        {
            "name" : "Cube.003",
            "primitives" : [
                {
                    "attributes" : {
                        "POSITION" : 18,
                        "NORMAL" : 19,
                        "TEXCOORD_0" : 20
                    },
                    "indices" : 21
                }
            ]
        },
        {
            "name" : "Plane.001",
            "primitives" : [
                {
                    "attributes" : {
                        "POSITION" : 22,
                        "NORMAL" : 23,
                        "TEXCOORD_0" : 24
                    },
                    "indices" : 25
                }
            ]
        },
        {
            "name" : "defaultMaterial.001",
            "primitives" : [
                {
                    "attributes" : {
                        "POSITION" : 26,
                        "NORMAL" : 27,
                        "TEXCOORD_0" : 28
                    },
                    "indices" : 29
                }
            ]
        },
        {
            "name" : "Cube.001",
            "primitives" : [
                {
                    "attributes" : {
                        "POSITION" : 30,
                        "NORMAL" : 31,
                        "TEXCOORD_0" : 32
                    },
                    "indices" : 7
                }
            ]
        }
    ],
    "accessors" : [
        {
            "bufferView" : 0,
            "componentType" : 5126,
            "count" : 338,
            "max" : [
                10.762357711791992,
                7.468967914581299,
                4.446061134338379
            ],
            "min" : [
                -6.0789384841918945,
                -9.855591773986816,
                -4.399689674377441
            ],
            "type" : "VEC3"
        },
        {
            "bufferView" : 1,
            "componentType" : 5126,
            "count" : 338,
            "type" : "VEC3"
        },
        {
            "bufferView" : 2,
            "componentType" : 5126,
            "count" : 338,
            "type" : "VEC2"
        },
        {
            "bufferView" : 3,
            "componentType" : 5123,
            "count" : 720,
            "type" : "SCALAR"
        },
        {
            "bufferView" : 4,
            "componentType" : 5126,
            "count" : 507,
            "max" : [
                5.758256912231445,
                10.200326919555664,
                3.3496150970458984
            ],
            "min" : [
                -7.357966423034668,
                -11.09420108795166,
                -3.241640090942383
            ],
            "type" : "VEC3"
        },
        {
            "bufferView" : 5,
            "componentType" : 5126,
            "count" : 507,
            "type" : "VEC3"
        },
        {
            "bufferView" : 6,
            "componentType" : 5126,
            "count" : 507,
            "type" : "VEC2"
        },
        {
            "bufferView" : 7,
            "componentType" : 5123,
            "count" : 1056,
            "type" : "SCALAR"
        },
        {
            "bufferView" : 8,
            "componentType" : 5126,
            "count" : 240,
            "max" : [
                3.1275815963745117,
                7.076232433319092,
                3.2148561477661133
            ],
            "min" : [
                -1.0526866912841797,
                -11.579538345336914,
                -2.904665946960449
            ],
            "type" : "VEC3"
        },
        {
            "bufferView" : 9,
            "componentType" : 5126,
            "count" : 240,
            "type" : "VEC3"
        },
        {
            "bufferView" : 10,
            "componentType" : 5126,
            "count" : 240,
            "type" : "VEC2"
        },
        {
            "bufferView" : 11,
            "componentType" : 5123,
            "count" : 600,
            "type" : "SCALAR"
        },
        {
            "bufferView" : 12,
            "componentType" : 5126,
            "count" : 507,
            "max" : [
                5.758256912231445,
                10.200326919555664,
                3.3496155738830566
            ],
            "min" : [
                -7.357966423034668,
                -11.09420108795166,
                -3.241640567779541
            ],
            "type" : "VEC3"
        },
        {
            "bufferView" : 13,
            "componentType" : 5126,
            "count" : 507,
            "type" : "VEC3"
        },
        {
            "bufferView" : 14,
            "componentType" : 5126,
            "count" : 507,
            "type" : "VEC2"
        },
        {
            "bufferView" : 15,
            "componentType" : 5126,
            "count" : 507,
            "max" : [
                5.7582573890686035,
                10.200326919555664,
                3.3496150970458984
            ],
            "min" : [
                -7.35796594619751,
                -11.09420108795166,
                -3.241640090942383
            ],
            "type" : "VEC3"
        },
        {
            "bufferView" : 16,
            "componentType" : 5126,
            "count" : 507,
            "type" : "VEC3"
        },
        {
            "bufferView" : 17,
            "componentType" : 5126,
            "count" : 507,
            "type" : "VEC2"
        },
        {
            "bufferView" : 18,
            "componentType" : 5126,
            "count" : 4235,
            "max" : [
                6.369912147521973,
                2.9255871772766113,
                2.288834810256958
            ],
            "min" : [
                -6.440249919891357,
                -9.303611755371094,
                -3.0712153911590576
            ],
            "type" : "VEC3"
        },
        {
            "bufferView" : 19,
            "componentType" : 5126,
            "count" : 4235,
            "type" : "VEC3"
        },
        {
            "bufferView" : 20,
            "componentType" : 5126,
            "count" : 4235,
            "type" : "VEC2"
        },
        {
            "bufferView" : 21,
            "componentType" : 5123,
            "count" : 8034,
            "type" : "SCALAR"
        },
        {
            "bufferView" : 22,
            "componentType" : 5126,
            "count" : 4,
            "max" : [
                63.07549285888672,
                0.26997292041778564,
                39.6104850769043
            ],
            "min" : [
                -68.9028549194336,
                -0.19062459468841553,
                -38.55821990966797
            ],
            "type" : "VEC3"
        },
        {
            "bufferView" : 23,
            "componentType" : 5126,
            "count" : 4,
            "type" : "VEC3"
        },
        {
            "bufferView" : 24,
            "componentType" : 5126,
            "count" : 4,
            "type" : "VEC2"
        },
        {
            "bufferView" : 25,
            "componentType" : 5123,
            "count" : 6,
            "type" : "SCALAR"
        },
        {
            "bufferView" : 26,
            "componentType" : 5126,
            "count" : 2478,
            "max" : [
                0.8767775297164917,
                0.551741361618042,
                0.9257741570472717
            ],
            "min" : [
                -0.6979466676712036,
                -0.6887257099151611,
                -1.0742257833480835
            ],
            "type" : "VEC3"
        },
        {
            "bufferView" : 27,
            "componentType" : 5126,
            "count" : 2478,
            "type" : "VEC3"
        },
        {
            "bufferView" : 28,
            "componentType" : 5126,
            "count" : 2478,
            "type" : "VEC2"
        },
        {
            "bufferView" : 29,
            "componentType" : 5123,
            "count" : 7188,
            "type" : "SCALAR"
        },
        {
            "bufferView" : 30,
            "componentType" : 5126,
            "count" : 507,
            "max" : [
                5.758256912231445,
                10.200326919555664,
                3.3496155738830566
            ],
            "min" : [
                -7.357966423034668,
                -11.09420108795166,
                -3.241640567779541
            ],
            "type" : "VEC3"
        },
        {
            "bufferView" : 31,
            "componentType" : 5126,
            "count" : 507,
            "type" : "VEC3"
        },
        {
            "bufferView" : 32,
            "componentType" : 5126,
            "count" : 507,
            "type" : "VEC2"
        }
    ],
    "bufferViews" : [
        {
            "buffer" : 0,
            "byteLength" : 4056,
            "byteOffset" : 0
        },
        {
            "buffer" : 0,
            "byteLength" : 4056,
            "byteOffset" : 4056
        },
        {
            "buffer" : 0,
            "byteLength" : 2704,
            "byteOffset" : 8112
        },
        {
            "buffer" : 0,
            "byteLength" : 1440,
            "byteOffset" : 10816
        },
        {
            "buffer" : 0,
            "byteLength" : 6084,
            "byteOffset" : 12256
        },
        {
            "buffer" : 0,
            "byteLength" : 6084,
            "byteOffset" : 18340
        },
        {
            "buffer" : 0,
            "byteLength" : 4056,
            "byteOffset" : 24424
        },
        {
            "buffer" : 0,
            "byteLength" : 2112,
            "byteOffset" : 28480
        },
        {
            "buffer" : 0,
            "byteLength" : 2880,
            "byteOffset" : 30592
        },
        {
            "buffer" : 0,
            "byteLength" : 2880,
            "byteOffset" : 33472
        },
        {
            "buffer" : 0,
            "byteLength" : 1920,
            "byteOffset" : 36352
        },
        {
            "buffer" : 0,
            "byteLength" : 1200,
            "byteOffset" : 38272
        },
        {
            "buffer" : 0,
            "byteLength" : 6084,
            "byteOffset" : 39472
        },
        {
            "buffer" : 0,
            "byteLength" : 6084,
            "byteOffset" : 45556
        },
        {
            "buffer" : 0,
            "byteLength" : 4056,
            "byteOffset" : 51640
        },
        {
            "buffer" : 0,
            "byteLength" : 6084,
            "byteOffset" : 55696
        },
        {
            "buffer" : 0,
            "byteLength" : 6084,
            "byteOffset" : 61780
        },
        {
            "buffer" : 0,
            "byteLength" : 4056,
            "byteOffset" : 67864
        },
        {
            "buffer" : 0,
            "byteLength" : 50820,
            "byteOffset" : 71920
        },
        {
            "buffer" : 0,
            "byteLength" : 50820,
            "byteOffset" : 122740
        },
        {
            "buffer" : 0,
            "byteLength" : 33880,
            "byteOffset" : 173560
        },
        {
            "buffer" : 0,
            "byteLength" : 16068,
            "byteOffset" : 207440
        },
        {
            "buffer" : 0,
            "byteLength" : 48,
            "byteOffset" : 223508
        },
        {
            "buffer" : 0,
            "byteLength" : 48,
            "byteOffset" : 223556
        },
        {
            "buffer" : 0,
            "byteLength" : 32,
            "byteOffset" : 223604
        },
        {
            "buffer" : 0,
            "byteLength" : 12,
            "byteOffset" : 223636
        },
        {
            "buffer" : 0,
            "byteLength" : 29736,
            "byteOffset" : 223648
        },
        {
            "buffer" : 0,
            "byteLength" : 29736,
            "byteOffset" : 253384
        },
        {
            "buffer" : 0,
            "byteLength" : 19824,
            "byteOffset" : 283120
        },
        {
            "buffer" : 0,
            "byteLength" : 14376,
            "byteOffset" : 302944
        },
        {
            "buffer" : 0,
            "byteLength" : 6084,
            "byteOffset" : 317320
        },
        {
            "buffer" : 0,
            "byteLength" : 6084,
            "byteOffset" : 323404
        },
        {
            "buffer" : 0,
            "byteLength" : 4056,
            "byteOffset" : 329488
        }
    ],
    "buffers" : [
        {
            "byteLength" : 333544,
            "uri" : "data:application/octet-stream;base64,"
        }
    ]
}
