{
    "asset" : {
        "generator" : "Khronos glTF Blender I/O v1.8.19",
        "version" : "2.0"
    },
    "scene" : 0,
    "scenes" : [
        {
            "name" : "Scene",
            "nodes" : [
                0
            ]
        }
    ],
    "nodes" : [
        {
            "mesh" : 0,
            "name" : "IANUA",
            "rotation" : [
                0,
                -0.11712568253278732,
                0,
                0.993117094039917
            ],
            "translation" : [
                -1.0959633588790894,
                9.298015594482422,
                68.73595428466797
            ]
        }
    ],
    "materials" : [
        {
            "doubleSided" : true,
            "name" : "IANUA",
            "pbrMetallicRoughness" : {
                "baseColorFactor" : [
                    0.30319586396217346,
                    0.30319586396217346,
                    0.30319586396217346,
                    1
                ],
                "metallicFactor" : 0,
                "roughnessFactor" : 0.5
            }
        }
    ],
    "meshes" : [
        {
            "name" : "Cube.003",
            "primitives" : [
                {
                    "attributes" : {
                        "POSITION" : 0,
                        "NORMAL" : 1,
                        "TEXCOORD_0" : 2
                    },
                    "indices" : 3,
                    "material" : 0
                }
            ]
        }
    ],
    "accessors" : [
        {
            "bufferView" : 0,
            "componentType" : 5126,
            "count" : 4239,
            "max" : [
                6.369912624359131,
                2.9255871772766113,
                2.288834810256958
            ],
            "min" : [
                -6.440249443054199,
                -9.303611755371094,
                -3.0712153911590576
            ],
            "type" : "VEC3"
        },
        {
            "bufferView" : 1,
            "componentType" : 5126,
            "count" : 4239,
            "type" : "VEC3"
        },
        {
            "bufferView" : 2,
            "componentType" : 5126,
            "count" : 4239,
            "type" : "VEC2"
        },
        {
            "bufferView" : 3,
            "componentType" : 5123,
            "count" : 8034,
            "type" : "SCALAR"
        }
    ],
    "bufferViews" : [
        {
            "buffer" : 0,
            "byteLength" : 50868,
            "byteOffset" : 0
        },
        {
            "buffer" : 0,
            "byteLength" : 50868,
            "byteOffset" : 50868
        },
        {
            "buffer" : 0,
            "byteLength" : 33912,
            "byteOffset" : 101736
        },
        {
            "buffer" : 0,
            "byteLength" : 16068,
            "byteOffset" : 135648
        }
    ],
    "buffers" : [
        {
            "byteLength" : 151716,
            "uri" : "data:application/octet-stream;base64,"
        }
    ]
}
